<svg fill="none" height="24" viewBox="0 0 24 24" width="24" xmlns="http://www.w3.org/2000/svg"><path d="m16.3296 13.4999v-.01c1.68-1.33 2.67-3.36 2.67-5.49999h2c0 2.85999-1.36 5.54999-3.67 7.23999l2.52 4.378-.01-.01c.55.95.22 2.17-.74 2.73l-3.53-6.11v-.01c-1.14.49-2.37.75-3.61.75h-.01c-1.25 0-2.46996-.26-3.60996-.76l-3.527 6.1c-.96-.56-1.29-1.78-.74-2.74l5.06-8.77-.01-.01c-1.58-1.54999-1.6-4.08999-.05-5.65999.5-.52 1.13996-.89 1.84996-1.07v-2.138h2v2.12c2.13.55 3.42 2.73 2.87 4.87-.19.7-.56 1.33999-1.07 1.84999l1.52 2.64zm-1.73 1-1.53-2.65v-.01c-.71.19-1.45.19-2.15 0l-1.52996 2.64c.79996.32 1.67996.49 2.59896.49.91 0 1.795-.18 2.599-.5zm-2.6-4.50999-.01-.001c1.1 0 2-.9 2-2 0-1.11-.9-2-2-2.01h-.01c-1.11 0-1.99996.89-1.99996 2 0 1.1.88996 2 1.99996 1.99z" fill="#101b22"/></svg>