<svg fill="none" height="24" viewBox="0 0 24 24" width="24" xmlns="http://www.w3.org/2000/svg"><path d="m1.99937 12c0-.87.11-1.71.31-2.50995l-.01-.01c1.65.08 3.06-1.19 3.15-2.84.03-.64-.14-1.26-.48-1.8v-.01c1.2-1.19 2.70001-2.06 4.33001-2.51l-.01001-.01c.75003 1.47 2.55003 2.06 4.03003 1.31.56-.29 1.02-.75 1.31-1.32 1.63.45 3.12 1.31 4.33 2.5v-.01c-.91 1.38-.51 3.24.88 4.15.53.34 1.15.51 1.79.47.2.79995.31 1.63795.31 2.50295 0 .86-.11 1.7-.32 2.5l-.01-.001c-1.66-.09-3.07 1.18-3.16 2.83-.04.63.13 1.26.47 1.79v-.01c-1.21 1.18-2.71 2.05-4.34 2.5-.76-1.48-2.56-2.07-4.04-1.32-.57002.28-1.03002.74-1.32002 1.31-1.64-.46-3.13-1.3199-4.34001-2.5099h-.01c.9-1.39.5-3.2501-.89-4.1601-.54-.35-1.15999-.52-1.79999-.48-.21-.8-.32-1.64-.32-2.51zm4.80001 3c.63 1.09.81 2.3401.56 3.5201.4.29.83999.54 1.28999.75h-.00999c.91-.83 2.10002-1.2801 3.33002-1.2801 1.26 0 2.43.47 3.33 1.27.45-.21.88-.46 1.29-.75l-.01-.01c-.26-1.21-.06-2.46.56-3.53h-.01c.61-1.07 1.6-1.87 2.76-2.25v-.01c.04-.5.04-1.01-.01-1.5-1.17-.39-2.16-1.19-2.78-2.24995l-.01-.01c-.62-1.07-.82-2.32-.57-3.53l-.01-.01c-.41-.3-.85-.55-1.3-.75h-.01c-.92.82-2.11 1.27-3.34 1.27h-.01c-1.24 0-2.42002-.46-3.34002-1.28v-.01c-.46.2-.89001.45-1.30001.74.25 1.2.05 2.45-.57 3.52v-.01c-.62 1.06-1.61 1.85995-2.77 2.23995v-.01c-.05.49-.05 1-.01 1.5l-.01-.01c1.16.38 2.15 1.18 2.77 2.24zm5.19002 0-.01-.001c-1.66-.01-3.00003-1.35-3.00003-3 0-1.66 1.34003-2.99995 3.00003-2.99995h-.01c1.65-.01 3 1.33995 3 2.99995 0 1.65-1.35 3-3 3zm0-2-.01-.001c.55 0 1-.45 1-1 0-.56-.45-1-1-1.01h-.01c-.56 0-1 .44-1 1 0 .55.44 1 1 .99z" fill="#101b22"/></svg>