<svg fill="none" height="24" viewBox="0 0 24 24" width="24" xmlns="http://www.w3.org/2000/svg"><path d="m5.00063 4.99999v3h13.99997v-3zm-1-2h15.99997-.01c.55-.01 1 .44 1 .99v5c0 .55-.45 1-1 1h-15.99997l-.01-.001c-.56-.01-1-.45-1-1.01v-5c-.01-.56.44-1.01.99-1.01zm2 9.00001h5.99997-.01c.55-.01 1 .44 1 .99v3h1v6h-3.99997v-6h.99997v-2h-5.99997l-.01-.001c-.56-.01-1-.45-1-1.01v-2h2v1zm11.73197 1.73 1.76-1.77 1.76 1.76-.01-.01c.97.97.97 2.55-.01 3.53-.98.97-2.56.97-3.54-.01s-.98-2.56-.01-3.54z" fill="#101b22"/></svg>