<svg fill="none" height="24" viewBox="0 0 24 24" width="24" xmlns="http://www.w3.org/2000/svg"><path d="m20.9991 21.0001h-18.00005-.01c-.56-.01-1-.45-1-1.01v-.001-7.52l-.01-.01c-.01-.29.12-.57.34-.76l3.65-3.199v-4.55c-.01-.56.44-1.01.99-1.01h14.00005-.01c.55-.01 1 .44 1 .99v16c0 .55-.45 1-1 1zm-12.00005-2h3.00005v-6.058l-4.00005-3.49-4 3.48v6.058h3v-4h2v4zm5.00005 0h6v-14h-12.00005v2.12c.23 0 .46.08001.657.24001l5.00005 4.35899c.21.18.34.46.34.75v6.51zm2-8h2v2h-2zm0 4h2v2h-2zm0-8h2v2h-2zm-4 0h2v2h-2z" fill="#101b22"/></svg>