<svg fill="none" height="22" viewBox="0 0 22 22" width="22" xmlns="http://www.w3.org/2000/svg"><path d="m10.9988 19.1574 4.5375-4.5375v-.0091c2.5025-2.5117 2.5025-6.57254-.0092-9.07504-2.5116-2.51166-6.57246-2.51166-9.07496 0-2.51167 2.5025-2.51167 6.56334 0 9.06584l4.52836 4.5283zm0 2.585-5.83916-5.8391-.00917-.0092c-3.22667-3.2267-3.22667-8.45167 0-11.66917 3.2175-3.226665 8.44253-3.226665 11.66003 0 3.2175 3.2175 3.2175 8.44247-.0092 11.65997l-5.8392 5.83zm0-9.8358-.0092-.0009c1.0084 0 1.8334-.825 1.8334-1.8334 0-1.01745-.825-1.83329-1.8334-1.84245h-.0091c-1.01753 0-1.83336.81583-1.83336 1.83335 0 1.0083.81583 1.8333 1.83336 1.8241zm0 1.8333-.0092-.0009c-2.0258-.0092-3.66663-1.65-3.66663-3.6758 0-2.02585 1.64083-3.66669 3.66663-3.66669h-.0091c2.0166-.00916 3.6666 1.64084 3.6666 3.65749 0 2.0167-1.65 3.6667-3.6666 3.6667z" fill="#101b22"/></svg>