<svg fill="none" height="24" viewBox="0 0 24 24" width="24" xmlns="http://www.w3.org/2000/svg" xmlns:xlink="http://www.w3.org/1999/xlink"><clipPath id="a"><path d="m0 0h24v24h-24z"/></clipPath><g clip-path="url(#a)"><path d="m19.0002 7h5v2h-5zm-2 5h7v2h-7zm3 5h4v2h-4zm-17.99997 5c-.01-4.42 3.58-8.01 7.99-8.01 4.40997-.01 7.99997 3.58 7.99997 7.99h-2c0-3.32-2.69-6-5.99997-6-3.32 0-6 2.68-6 6h-2zm7.99997-9c-3.31997 0-5.99997-2.69-5.99997-6 0-3.32 2.68-6 5.99997-6 3.31 0 6 2.685 6 6 0 3.31-2.69 6-6 6zm0-2c2.21 0 4-1.79 4-4s-1.79-4-4-4c-2.20997 0-3.99997 1.79-3.99997 4s1.79 4 3.99997 4z" fill="#101b22"/></g></svg>