<svg width="20" height="20" viewBox="0 0 20 20" fill="none" xmlns="http://www.w3.org/2000/svg">
<path d="M10.0009 7.50019H9.9926C8.60927 7.50019 7.4926 8.61686 7.4926 10.0002C7.4926 11.3752 8.60927 12.5002 9.9926 12.5002L9.98427 12.4994C11.3593 12.4994 12.4843 11.3744 12.4843 9.99936C12.4843 8.61602 11.3593 7.49936 9.98427 7.49936L10.0009 7.50019ZM10.0009 5.83352H9.9926C12.2926 5.82519 14.1593 7.69186 14.1593 9.99186C14.1593 12.2919 12.2926 14.1585 9.9926 14.1585L9.98427 14.1577C7.67594 14.1494 5.8176 12.291 5.8176 9.98269C5.8176 7.67436 7.67594 5.81602 9.98427 5.81602L10.0009 5.83352ZM15.4176 5.62519C15.4176 6.20019 14.9509 6.66686 14.3759 6.66686C13.7926 6.66686 13.3343 6.20019 13.3343 5.62519C13.3259 5.04186 13.7926 4.57519 14.3676 4.57519C14.9426 4.56686 15.4093 5.03352 15.4093 5.60852L15.4176 5.62519ZM10.0009 3.33352C7.93927 3.33352 7.6026 3.33352 6.64344 3.37519C5.9851 3.40019 5.55177 3.49186 5.1451 3.65019C4.77844 3.78352 4.5201 3.95019 4.2451 4.23352H4.23677C3.9701 4.48352 3.7701 4.79186 3.6451 5.13352C3.48677 5.54186 3.3951 5.97519 3.36177 6.63186C3.31177 7.54852 3.31177 7.86519 3.31177 9.98186C3.31177 12.0435 3.31177 12.3802 3.35344 13.3394C3.37844 13.9894 3.4701 14.431 3.62844 14.831C3.7701 15.1894 3.93677 15.4477 4.21344 15.731C4.48844 16.006 4.7551 16.1727 5.11344 16.3144C5.52177 16.4727 5.96344 16.556 6.61344 16.5894C7.5301 16.631 7.8551 16.631 9.97094 16.631C12.0326 16.631 12.3693 16.6227 13.3284 16.581C13.9801 16.5477 14.4118 16.456 14.8201 16.2977C15.1784 16.156 15.4368 15.9894 15.7201 15.706C15.9951 15.4227 16.1618 15.1644 16.3034 14.806C16.4618 14.3894 16.5451 13.956 16.5784 13.306C16.6201 12.381 16.6201 12.0644 16.6201 9.94852C16.6201 7.88686 16.6118 7.55019 16.5701 6.59102C16.5368 5.93935 16.4451 5.49936 16.2868 5.09269C16.1534 4.75102 15.9534 4.44269 15.6951 4.19269L15.6868 4.18436C15.4284 3.91769 15.1201 3.71769 14.7868 3.59269C14.3784 3.43436 13.9368 3.34269 13.2868 3.30936C12.3618 3.25936 12.0368 3.25936 9.92844 3.25936L10.0009 3.33352ZM10.0009 1.66686C12.2593 1.66686 12.5426 1.67519 13.4359 1.71686C14.3193 1.75852 14.9276 1.89186 15.4526 2.10019C16.0026 2.30852 16.4609 2.59186 16.9276 3.05852L16.9193 3.05019C17.3359 3.45852 17.6693 3.96686 17.8776 4.52519C18.0776 5.05019 18.2193 5.65852 18.2609 6.54185C18.2943 7.42519 18.3109 7.70852 18.3109 9.97519C18.3109 12.2335 18.3026 12.5169 18.2609 13.4085C18.2193 14.2919 18.0776 14.9002 17.8693 15.4252V15.4169C17.6526 15.9669 17.3276 16.4752 16.9026 16.8919V16.8835C16.4776 17.3002 15.9776 17.6335 15.4193 17.8419C14.8859 18.0419 14.2776 18.1835 13.3943 18.2252C12.5026 18.2585 12.2193 18.2752 9.95927 18.2752C7.6926 18.2752 7.40927 18.2669 6.5176 18.2252C5.62594 18.1835 5.02594 18.0419 4.49427 17.8335C3.93594 17.6169 3.4276 17.2919 3.01094 16.8669L3.0026 16.8585C2.5776 16.4419 2.24427 15.9335 2.03594 15.3752C1.8276 14.8419 1.68594 14.2335 1.64427 13.3502C1.6026 12.4585 1.58594 12.1752 1.58594 9.90852C1.58594 7.64186 1.59427 7.35852 1.63594 6.46686C1.6776 5.57519 1.81094 4.97519 2.01927 4.44352V4.43519C2.2276 3.87686 2.5526 3.36852 2.9776 2.95186V2.94352C3.38594 2.51852 3.89427 2.18519 4.4526 1.97686C4.9776 1.76852 5.5876 1.62686 6.47594 1.58519C7.35927 1.54352 7.64261 1.52686 9.90927 1.52686L10.0009 1.66686Z" fill="white"/>
</svg>
