<svg fill="none" height="20" viewBox="0 0 93 20" width="93" xmlns="http://www.w3.org/2000/svg"><g fill="#fff"><path d="m57.7822 19.3343c-1.7124.0516-3.3845-.5264-4.7001-1.6237-.6416-.5767-1.1452-1.2899-1.4737-2.0875s-.4736-1.6593-.4243-2.5205v-12.275585c-.0105-.079893-.0026-.161111.0232-.237471.0257-.07636.0686-.146024.1255-.203179.0568-.057155.126-.100661.2022-.12688.0762-.026218.1574-.03496.2373-.024861h3.099c.0799-.010099.1611-.001357.2373.024861.0762.026219.1453.069725.2021.12688s.0999.126819.1256.203179c.0258.07636.0336.157578.0231.237471v11.060785c-.0498 1.002.2722 1.9874.9042 2.7665.3185.3479.7101.6205 1.1466.799.4366.1785.9072.2582 1.3781.2332.49.0213.9791-.0597 1.4362-.2375.4571-.1777.8724-.448 1.2194-.7947.34-.3728.603-.8095.774-1.2842s.2466-.9783.2224-1.4823v-11.060785c-.0106-.079893-.0027-.161111.023-.237471.0258-.07636.0688-.146024.1256-.203179s.126-.100661.2022-.12688c.0762-.026218.1574-.03496.2374-.024861h3.0611c.0801-.010543.1617-.002017.2382.024004.0766.026021.1461.068812.2032.126022.0571.057211.1003.127453.1262.204037s.0338.158186.0232.238328v17.659385c.01.0799.0017.1614-.0245.2375-.0261.0761-.0694.1455-.1264.2023-.0571.0568-.1264.0994-.2027.1252-.0762.0258-.1574.0336-.2372.0231h-3.0611c-.0798.0111-.1612.0043-.2376-.0214-.0764-.0256-.1458-.069-.2028-.126s-.1-.1259-.1256-.2023c-.0257-.0764-.0333-.1585-.0222-.2384v-.9584c0-.0966-.0316-.1606-.0922-.1852-.0119-.005-.0247-.0075-.0377-.0077-.0474 0-.0878.0393-.1282.1192-.5494.645-1.2432 1.1514-2.0251 1.4779-.7819.3266-1.6299.4648-2.4749.4021zm20.6098-.0351c-1.3887.0263-2.7702-.2058-4.0742-.6842-1.0532-.3766-1.9882-1.0247-2.71-1.8792-.6194-.7535-.9583-1.6993-.9587-2.6747v-.1852c-.01-.0799-.0016-.1605.0246-.2366.0261-.0761.0694-.1455.1264-.2023.0571-.0568.1264-.0994.2027-.1252.0762-.0258.1574-.0344.2372-.024h2.9496c.3977 0 .5908.0877.5908.2589v.2555c.018.3316.1205.6537.2978.9344.1774.2808.4236.5109.7153.6696.7663.4797 1.6591.7183 2.5625.6841.8418.034 1.675-.1799 2.3966-.6147.2734-.1527.5021-.3746.6635-.643.1614-.2683.2497-.5742.2564-.8873.0081-.2617-.0586-.5197-.1921-.7449-.1335-.2253-.3285-.4087-.5619-.5273-.7828-.3863-1.6044-.6877-2.4511-.9001l-1.4045-.4441c-1.087-.3066-2.1471-.7018-3.17-1.1805-.8424-.40419-1.5854-.98825-2.1762-1.71203-.6117-.79642-.9249-1.7828-.885-2.78621-.0233-.79667.1474-1.58667.4975-2.3027.35-.71602.869-1.33628 1.512-1.80718 1.5583-1.083686 3.4311-1.6218011 5.3269-1.5302677 1.3518-.0279874 2.6953.2168267 3.9505.7192707 1.0415.413727 1.9516 1.101367 2.6336 1.990637.6216.83688.9515 1.85524.9392 2.89766-.0004.06172-.0157.12205-.0445.1766-.0289.05455-.0706.10123-.1213.13631-.1233.0892-.2729.13477-.4249.1286h-2.8373c-.3924 0-.5909-.07372-.5909-.22033v-.22118c-.0068-.32525-.0966-.64344-.261-.92416-.1644-.28073-.3979-.51478-.6782-.67984-.7701-.46718-1.663-.69203-2.5625-.64468-.8142-.03371-1.6227.15059-2.3422.53323-.2733.14139-.5022.35558-.6613.61897s-.2423.56501-.2403.87273c-.0033.28229.0748.55999.2251.799.1502.239.3662.42931.622.54866.9101.43337 1.862.77308 2.8409 1.01333l.8471.22032c1.1297.32431 2.2383.71814 3.3193 1.17964.8698.38453 1.6387.96592 2.2464 1.69742.6371.806.9647 1.8128.9235 2.8394.0262.8029-.1488 1.6002-.5093 2.3181s-.8949 1.3341-1.5545 1.7926c-1.6279 1.0659-3.5511 1.5899-5.4946 1.4969zm-70.82748 0c-.08778 0-.19138 0-.33798 0v-3.2106c.10797 0 .20629.0068.30198.0068.84177.034 1.675-.1798 2.39657-.6146.27311-.1531.50181-.3747.66311-.643s.2499-.5743.257-.8873c.008-.2618-.0586-.5197-.1922-.745-.1335-.2253-.3284-.4078-.5619-.5264-.78505-.3867-1.60909-.6889-2.4581-.901l-1.39932-.4441c-1.08794-.3061-2.14902-.7005-3.17263-1.1796-.84141-.40416-1.58326-.98912-2.172713-1.71289-.611687-.79641-.9248605-1.78194-.88494243-2.78535-.02332797-.79667.14749343-1.58753.49755243-2.30355.35006-.71603.868913-1.33629 1.511943-1.80718 1.55801-1.084175 3.43104-1.6223386 5.32692-1.5302739 1.35021-.0269181 2.69209.2178689 3.94599.7192709 1.041.414643 1.9509 1.102973 2.6336 1.991493.6217.83688.9516 1.85439.9393 2.8968-.0005.06172-.0157.12206-.0446.17661-.0288.05455-.0705.10122-.1213.13631-.1236.08846-.273.13396-.4249.12859h-2.8372c-.3924 0-.5909-.07372-.5909-.22032v-.22119c-.0068-.32525-.0966-.64344-.261-.92416s-.3979-.51478-.67825-.67983c-.77011-.46718-1.66297-.69204-2.56246-.64469-.81427-.03439-1.623.14996-2.34224.53324-.27381.14102-.5032.35469-.66279.61811-.1596.26341-.24309.56645-.24133.87444-.00322.2826.07525.55994.226.799.15076.23905.36728.42893.62368.54781.90876.43351 1.85951.77322 2.83733 1.01332l.84979.22033c1.12892.32416 2.23657.71799 3.31657 1.17963.871.38383 1.6409.96528 2.2491 1.69748.6371.8059.9647 1.8128.9235 2.8393.0263.8033-.1492 1.601-.5104 2.319-.3611.718-.8964 1.3339-1.5569 1.7918-1.6256 1.0632-3.54574 1.5854-5.48588 1.4917zm38.42088-.2247h-3.0989c-.0799.0111-.1611.0043-.2375-.0214-.0764-.0256-.1459-.069-.2028-.126-.057-.057-.1001-.1259-.1257-.2023-.0257-.0764-.0332-.1585-.0221-.2384v-17.659385c-.0106-.079893-.0028-.161111.023-.237471s.0688-.146024.1256-.203179.1259-.100661.2021-.12688c.0762-.026218.1574-.03496.2374-.024861h3.0989c.0799-.010099.1611-.001357.2374.024861.0762.026219.1453.069725.2022.12688.0568.057155.0997.126819.1255.203179.0257.07636.0337.157578.0231.237471v17.659385c.0118.0802.0048.1622-.0205.2392s-.0682.1474-.1252.2049c-.0571.0575-.1269.101-.2036.1269-.0768.0259-.1587.0335-.2389.0223zm-14.1582 0h-3.099c-.0798.0111-.1611.0043-.2375-.0214-.0764-.0256-.1459-.069-.2029-.126s-.0999-.1259-.1256-.2023c-.0256-.0764-.0332-.1585-.0222-.2384v-17.659385c-.0105-.079893-.0026-.161111.0232-.237471.0257-.07636.0687-.146024.1255-.203179s.126-.100661.2022-.12688c.0762-.026218.1574-.03496.2373-.024861h3.099c.0799-.010099.1611-.001357.2373.024861.0762.026219.1453.069725.2021.12688s.0999.126819.1256.203179c.0258.07636.0336.157578.0231.237471v1.437685c0 .09832.0237.15802.0737.1826.0091.00503.0194.00756.0299.00772.0412 0 .0816-.03934.1202-.11659.3431-.55536.7939-1.03611 1.3258-1.414541.5319-.378429 1.1343-.646676 1.7714-.788712h2.2886c.2905.065962.5735.16088.8445.284622.1369.059488.2467.168382.3082.30434.0615.135959.0702.290031.0245.432081l-.5908 3.05968c-.0246.1984-.093.32207-.2045.37035-.0651.02686-.1351.03942-.2054.03687-.0977-.00146-.1949-.01382-.2898-.03687-.3839-.10982-.7824-.16008-1.1816-.14916-.2346-.00292-.4693.00966-.7023.03772-.967.02336-1.8892.41185-2.5818 1.08705-.3432.34488-.612.75661-.7896 1.20964s-.2602.93769-.2428 1.42397v10.28843c.0123.0802.0057.162-.0193.2392-.0251.0771-.0677.1479-.1247.2057-.0569.0578-.1266.1016-.2034.1277-.0768.0262-.1586.0342-.2389.0232zm-9.1071 0h-3.0989c-.0798.0111-.1612.0043-.2376-.0214-.0764-.0256-.1458-.069-.2028-.126s-.1-.1259-.1256-.2023c-.0257-.0764-.0333-.1585-.0222-.2384v-17.659385c-.0106-.079893-.0026-.161111.0231-.237471.0258-.07636.0687-.146024.1255-.203179s.126-.100661.2022-.12688c.0762-.026218.1574-.03496.2374-.024861h3.0989c.08-.010099.1612-.001357.2374.024861.0762.026219.1454.069725.2022.12688s.0997.126819.1255.203179c.0257.07636.0336.157578.023.237471v17.659385c.0118.0802.0048.1622-.0205.2392s-.0681.1474-.1252.2049-.1268.101-.2036.1269-.1585.0335-.2388.0223z"/><path d="m90.4582 19.1156c-.3278.0118-.6545-.0426-.9608-.1598s-.5859-.2948-.8222-.5223c-.2281-.2202-.408-.4855-.5282-.779-.1201-.2935-.1779-.6088-.1697-.9258-.0009-.315.0666-.6265.1977-.9129.1311-.2865.3227-.5411.5617-.7463.4613-.447 1.0783-.6972 1.7206-.6979.6566-.0019 1.289.2479 1.7672.6979.2428.2029.4381.4567.572.7434.134.2867.2033.5993.2031.9158.0043.3171-.0584.6315-.1839.9227-.1256.2912-.3112.5526-.5447.7672-.2411.2303-.5254.4105-.8366.5301-.3111.1197-.643.1764-.9762.1669z"/></g></svg>